<svg width="196" height="192" viewBox="0 0 196 192" fill="none" xmlns="http://www.w3.org/2000/svg">
<g id="github-mark 1" clip-path="url(#clip0_6_60)">
<path id="Vector" fill-rule="evenodd" clip-rule="evenodd" d="M97.708 0C43.678 0 0 44 0 98.434C0 141.946 27.986 178.778 66.81 191.814C71.664 192.794 73.442 189.696 73.442 187.09C73.442 184.808 73.282 176.986 73.282 168.836C46.102 174.704 40.442 157.102 40.442 157.102C36.074 145.694 29.602 142.762 29.602 142.762C20.706 136.732 30.25 136.732 30.25 136.732C40.118 137.384 45.296 146.836 45.296 146.836C54.03 161.828 68.104 157.592 73.766 154.984C74.574 148.628 77.164 144.228 79.914 141.784C58.236 139.502 35.428 131.028 35.428 93.218C35.428 82.462 39.308 73.662 45.456 66.818C44.486 64.374 41.088 54.268 46.428 40.742C46.428 40.742 54.678 38.134 73.28 50.846C81.2442 48.6913 89.4575 47.5952 97.708 47.586C105.958 47.586 114.368 48.728 122.134 50.846C140.738 38.134 148.988 40.742 148.988 40.742C154.328 54.268 150.928 64.374 149.958 66.818C156.268 73.662 159.988 82.462 159.988 93.218C159.988 131.028 137.18 139.338 115.34 141.784C118.9 144.88 121.972 150.746 121.972 160.036C121.972 173.236 121.812 183.83 121.812 187.088C121.812 189.696 123.592 192.794 128.444 191.816C167.268 178.776 195.254 141.946 195.254 98.434C195.414 44 151.576 0 97.708 0Z" fill="white"/>
</g>
<defs>
<clipPath id="clip0_6_60">
<rect width="196" height="192" fill="white"/>
</clipPath>
</defs>
</svg>
